<svg xmlns="http://www.w3.org/2000/svg" width="324" height="324" fill="none" viewBox="0 0 324 324">
  <path fill="#000" d="m235.951 266.712 6.598 4.553 6.765-5.348-2.921-7.461 1.921-1.518 8.9 23.15-2.748 2.173-20.473-14.001 1.958-1.548Zm14.186 1.328-5.723 4.526 10.264 7.1-4.541-11.626Zm-19.198 1.83 13.8 21.866-2.057 1.298-13.8-21.866 2.057-1.298ZM217.901 286l8.455-4.304c-.72-1.344-1.443-2.329-2.167-2.954-.725-.624-1.493-.945-2.304-.963-.807-.009-1.718.246-2.735.763-.913.465-1.914 1.214-3.004 2.247l-.943-1.853a13.648 13.648 0 0 1 1.578-1.343 12.896 12.896 0 0 1 1.66-1.006c1.474-.75 2.814-1.103 4.021-1.059 1.213.053 2.356.548 3.432 1.485 1.065.941 2.092 2.382 3.079 4.321 1.388 2.728 1.925 4.981 1.608 6.758-.311 1.786-1.332 3.12-3.062 4-1.683.857-3.291.873-4.823.049-1.532-.824-3.007-2.628-4.425-5.414l-.37-.727Zm8.804 4.46c1.018-.518 1.601-1.336 1.75-2.453.145-1.103-.291-2.689-1.307-4.756l-6.346 3.229c.735 1.398 1.439 2.44 2.112 3.127.663.691 1.301 1.085 1.912 1.181.606.11 1.233.001 1.879-.328Zm-16.381-16.69c-.339 1.718-.442 3.268-.307 4.649.125 1.385.536 2.955 1.232 4.71l5.399 13.608-2.261.897-5.334-13.445c-.527-1.329-.89-2.562-1.089-3.699a13.549 13.549 0 0 1-.195-3.4c.064-1.138.265-2.383.602-3.733l1.953.413Zm6.58 26.91c.506-.201.956-.224 1.35-.07.383.157.668.469.853.935.184.466.191.888.02 1.266-.178.391-.519.687-1.025.888-.505.201-.952.217-1.34.05-.384-.158-.668-.469-.853-.935-.185-.466-.192-.888-.02-1.266.171-.378.51-.667 1.015-.868Zm-13.167.877c-1.289.381-2.397.509-3.324.382-.937-.123-1.741-.547-2.412-1.272-.667-.715-1.212-1.789-1.635-3.221l-3.288-11.124 1.948-.576.709 1.776.153-.045a4.739 4.739 0 0 1 1.282-2.098c.593-.553 1.324-.958 2.194-1.215.89-.263 1.725-.316 2.506-.157a4.006 4.006 0 0 1 2.039 1.082c.57.577.995 1.336 1.273 2.277.442 1.493.338 2.781-.31 3.862-.645 1.092-1.878 2.001-3.698 2.728l-2.989 1.234.499 1.688c.278.941.634 1.637 1.067 2.087.426.463.937.724 1.532.782.599.067 1.333-.027 2.202-.284a12.277 12.277 0 0 0 1.853-.731 11.497 11.497 0 0 0 1.834-1.076l.59 1.995c-.533.379-1.166.739-1.9 1.078a14.55 14.55 0 0 1-2.125.828Zm-4.46-15.316a4.03 4.03 0 0 0-1.7 1.02c-.51.496-.888 1.175-1.134 2.037l1.257 4.25 2.829-1.153c1.081-.442 1.818-.999 2.209-1.671.381-.668.433-1.468.158-2.399-.287-.972-.737-1.628-1.35-1.97-.622-.339-1.379-.377-2.269-.114Zm-8.737 18.425-2.023.322-.493-1.882-.158.025a5.998 5.998 0 0 1-1.766 1.934 5.723 5.723 0 0 1-2.438.971c-1.422.226-2.612-.022-3.569-.744-.956-.712-1.588-2.032-1.894-3.96l-1.907-11.977 2.402-.382 1.884 11.835c.193 1.211.578 2.036 1.155 2.473.579.448 1.326.599 2.243.453.706-.112 1.387-.41 2.045-.893.647-.481 1.131-1.141 1.451-1.98l-2.063-12.957 2.402-.382 2.729 17.144Zm-24.62-15.028c1.109-.03 2.114.22 3.014.751.889.541 1.612 1.445 2.17 2.71.557 1.276.864 2.949.919 5.017.085 3.146-.507 5.493-1.778 7.043-1.281 1.56-3.233 2.376-5.856 2.447a17.815 17.815 0 0 1-1.89-.061l.225 8.349-2.431.066-.698-25.847 2.095-.057.223 1.755.16-.004a4.527 4.527 0 0 1 1.559-1.547c.662-.391 1.424-.599 2.288-.622Zm-.534 2.159a3.753 3.753 0 0 0-1.873.563 3.6 3.6 0 0 0-1.384 1.494l.313 11.612c.268.046.6.08.996.101.385.032.737.044 1.057.035 1.738-.047 3.029-.626 3.874-1.737.835-1.111 1.218-2.925 1.15-5.441-.048-1.759-.25-3.13-.608-4.113-.367-.972-.844-1.642-1.43-2.01-.586-.358-1.284-.526-2.095-.504Zm-12.8 15.283-2.025-.164-.016-2.377-.16-.013c-.557.8-1.23 1.382-2.02 1.746a5.09 5.09 0 0 1-2.555.435 7.849 7.849 0 0 1-.966-.159l.187-2.312c.252.063.622.115 1.111.154.84.068 1.666-.089 2.479-.473a4.57 4.57 0 0 0 1.92-1.706l1.025-12.63 2.424.196-1.404 17.303Zm-15.081-19.731c4.212.803 5.758 4.138 4.639 10.006-.585 3.07-1.552 5.204-2.899 6.402-1.357 1.196-3.057 1.6-5.101 1.21-2.011-.384-3.427-1.387-4.247-3.009-.83-1.624-.956-3.956-.376-6.994.583-3.06 1.555-5.193 2.914-6.4 1.347-1.198 3.037-1.603 5.07-1.215Zm-.372 1.948c-.838-.159-1.574-.088-2.207.215-.633.302-1.197.922-1.691 1.86-.493.937-.905 2.27-1.235 3.999-.336 1.761-.448 3.178-.338 4.252.11 1.074.409 1.87.896 2.386.478.515 1.13.851 1.958 1.009.838.16 1.579.09 2.223-.211.631-.292 1.195-.912 1.691-1.86.493-.938.905-2.271 1.235-4 .335-1.76.448-3.177.338-4.252-.11-1.074-.403-1.868-.881-2.383-.488-.516-1.151-.855-1.989-1.015Zm-26.539-10.326c1.855.76 3.272 1.762 4.25 3.004.964 1.248 1.454 2.838 1.469 4.769.006 1.928-.548 4.248-1.66 6.963-1.626 3.967-3.553 6.532-5.781 7.694-2.239 1.158-4.813 1.14-7.725-.053a15.028 15.028 0 0 1-3.723-2.183l.832-2.028c.566.474 1.147.885 1.742 1.233a15.16 15.16 0 0 0 1.915.94c1.47.603 2.802.814 3.994.634 1.182-.184 2.297-.851 3.344-2.001 1.048-1.15 2.041-2.87 2.979-5.16.959-2.339 1.469-4.286 1.529-5.84.061-1.555-.262-2.805-.969-3.752-.711-.937-1.788-1.701-3.229-2.292a11.201 11.201 0 0 0-1.982-.605 18.286 18.286 0 0 0-2.31-.272l.832-2.028c.695.02 1.429.113 2.202.28.777.157 1.541.389 2.291.697Zm-20.491 19.194-2.108-1.214 5.207-9.04-.125-.072c-.857.356-1.704.502-2.542.438-.852-.06-1.68-.321-2.484-.784-1.21-.698-1.954-1.63-2.229-2.798-.28-1.159.072-2.593 1.057-4.303l6.02-10.454 2.108 1.213-5.965 10.357c-.623 1.082-.845 1.97-.666 2.663.174.704.662 1.287 1.467 1.75.61.351 1.324.553 2.143.606.81.048 1.598-.156 2.366-.613l6.548-11.369 2.107 1.214-12.904 22.406Zm-15.885-19.953c-1.07-.814-1.827-1.632-2.273-2.455-.455-.829-.588-1.728-.4-2.697.182-.961.725-2.035 1.63-3.223l7.028-9.229 1.616 1.231-1.013 1.621.127.097a4.735 4.735 0 0 1 2.45-.206c.797.151 1.556.501 2.277 1.05.738.562 1.274 1.205 1.608 1.929.334.723.445 1.485.332 2.284-.127.801-.488 1.592-1.082 2.373-.944 1.239-2.043 1.917-3.299 2.033-1.261.126-2.724-.331-4.386-1.369l-2.763-1.681-1.066 1.4c-.595.781-.945 1.479-1.052 2.095-.122.618-.03 1.184.276 1.698.299.523.809 1.059 1.53 1.608.484.368 1.046.722 1.685 1.062.625.341 1.276.622 1.953.843l-1.26 1.655a11.833 11.833 0 0 1-1.994-.895 14.538 14.538 0 0 1-1.924-1.224Zm9.715-12.652a4.023 4.023 0 0 0-1.828-.769c-.701-.118-1.472-.021-2.313.291l-2.685 3.526 2.603 1.599c.996.612 1.88.876 2.654.794.764-.088 1.44-.518 2.028-1.291.614-.806.878-1.557.791-2.253-.095-.703-.512-1.335-1.25-1.897Zm-27.019-3.014-1.785-1.746 16.121-8.514 2.299 2.249-8.161 16.302-1.841-1.801 7.168-13.961-13.801 7.471Zm-5.046-20.775 5.911 7.422c1.173-.976 1.993-1.881 2.46-2.716.466-.836.627-1.652.482-2.451-.153-.791-.585-1.633-1.296-2.526-.639-.801-1.573-1.632-2.804-2.492l1.627-1.296c.62.419 1.164.845 1.632 1.277.467.433.906.908 1.318 1.425 1.03 1.293 1.645 2.536 1.844 3.727.191 1.198-.065 2.418-.767 3.659-.709 1.233-1.914 2.527-3.616 3.883-2.395 1.908-4.494 2.885-6.298 2.931-1.813.053-3.324-.68-4.533-2.199-1.177-1.476-1.515-3.048-1.015-4.714.5-1.667 1.972-3.474 4.416-5.421l.639-.509Zm-2.604 9.52c.711.893 1.63 1.301 2.754 1.223 1.11-.079 2.575-.824 4.397-2.235l-4.436-5.569c-1.221 1.001-2.101 1.899-2.64 2.696-.544.788-.802 1.492-.773 2.11.013.616.246 1.208.698 1.775ZM53 232.941l-4.313-6.889 1.71-1.07 5.798 9.263-1.262.789-15.964.612 4.135 6.605-1.709 1.07-5.629-8.992 1.262-.789L53 232.941ZM179.536 35.085l4.17-23.31 2.425.434-3.775 21.105 9.875 1.766-.394 2.205-12.301-2.2Zm19.803 4.761c-1.353-.428-2.295-1.18-2.828-2.254-.533-1.074-.5-2.558.098-4.45l3.647-11.532 2.319.733-3.618 11.442c-.373 1.18-.406 2.097-.099 2.754.32.65.908 1.11 1.762 1.38.651.205 1.373.238 2.167.097.804-.137 1.526-.508 2.164-1.111l3.97-12.555 2.319.733-5.234 16.552-1.953-.617.386-1.858-.152-.049c-.788.512-1.605.83-2.45.954a5.663 5.663 0 0 1-2.498-.22Zm11.127 3.641 6.763-15.989 2.24.948-6.763 15.988-2.24-.947Zm9.347-18.978c-.501-.212-.838-.51-1.01-.896-.163-.382-.147-.804.048-1.265.196-.462.487-.767.874-.916.401-.155.853-.126 1.354.086.501.212.831.513.989.905.163.381.147.803-.048 1.265-.196.462-.487.767-.874.916-.387.149-.832.117-1.333-.095Zm.318 23.76a11.896 11.896 0 0 1-3.212-2.42l.956-1.83c1.04 1.05 2.099 1.857 3.177 2.42 1.068.559 1.997.762 2.787.61.795-.163 1.41-.66 1.845-1.491.37-.71.485-1.342.342-1.898-.138-.565-.509-1.133-1.114-1.702l-1.344-1.227c-1.037-.964-1.654-1.924-1.851-2.882-.183-.962.012-1.992.586-3.088.45-.86 1.055-1.512 1.817-1.957.762-.444 1.641-.64 2.638-.588 1.01.047 2.083.367 3.217.96a14.683 14.683 0 0 1 2.813 1.905l-.964 1.843a14.82 14.82 0 0 0-1.305-1.025 13.315 13.315 0 0 0-1.416-.85c-1.153-.602-2.137-.816-2.951-.64-.814.176-1.417.637-1.807 1.384-.336.643-.443 1.237-.319 1.783.138.542.5 1.093 1.086 1.652l1.337 1.24c1.089 1.004 1.725 1.986 1.907 2.948.183.963-.02 2.006-.608 3.131-.484.926-1.117 1.619-1.899 2.077-.766.453-1.641.652-2.623.596-.967-.06-1.999-.378-3.095-.951Zm23.31-7.017c1.11.758 1.908 1.537 2.396 2.336.497.804.676 1.695.537 2.673-.133.969-.62 2.07-1.463 3.303l-6.546 9.576-1.678-1.147.929-1.671-.132-.09a4.733 4.733 0 0 1-2.436.33c-.803-.11-1.579-.42-2.327-.932-.767-.523-1.335-1.138-1.705-1.844a4.008 4.008 0 0 1-.449-2.264c.086-.806.407-1.615.96-2.425.879-1.285 1.942-2.019 3.19-2.2 1.254-.189 2.738.192 4.451 1.144l2.845 1.538.993-1.453c.554-.81.869-1.526.944-2.146.09-.623-.031-1.184-.362-1.682-.326-.507-.863-1.016-1.611-1.528a12.323 12.323 0 0 0-1.737-.974 11.478 11.478 0 0 0-1.993-.742l1.174-1.717c.631.173 1.31.437 2.036.791.742.352 1.403.727 1.984 1.124Zm-9.055 13.133a4.024 4.024 0 0 0 1.865.674c.706.082 1.471-.054 2.295-.408l2.501-3.659-2.681-1.465c-1.026-.559-1.923-.778-2.691-.657-.759.128-1.412.592-1.96 1.393-.572.837-.797 1.6-.675 2.291.131.697.58 1.307 1.346 1.83Zm14.756 13.712 16.805-16.683 1.736 1.749-15.215 15.105 7.068 7.12-1.59 1.578-8.804-8.868Zm13.431 15.199c-.864-1.126-1.206-2.281-1.027-3.468.179-1.186 1.056-2.382 2.63-3.59l9.597-7.363 1.48 1.93-9.521 7.304c-.981.753-1.534 1.487-1.659 2.2-.109.717.109 1.43.654 2.14.416.543.989.983 1.72 1.323.738.348 1.541.458 2.41.329l10.448-8.016 1.48 1.93-13.773 10.567-1.247-1.625 1.381-1.301-.097-.127c-.939-.033-1.791-.24-2.554-.622a5.657 5.657 0 0 1-1.922-1.611Zm19.982 15.761-4.766-8.204c-1.302.793-2.246 1.57-2.829 2.328-.583.758-.862 1.543-.835 2.353.036.806.341 1.702.914 2.689.515.886 1.318 1.844 2.41 2.875l-1.798 1.044a13.58 13.58 0 0 1-1.428-1.502 12.815 12.815 0 0 1-1.097-1.602c-.83-1.43-1.257-2.748-1.28-3.956-.014-1.213.417-2.382 1.293-3.508.881-1.116 2.262-2.22 4.144-3.314 2.647-1.537 4.867-2.197 6.658-1.98 1.801.212 3.189 1.158 4.164 2.837.948 1.632 1.054 3.236.316 4.812s-2.458 3.148-5.16 4.718l-.706.41Zm3.965-9.038c-.573-.987-1.422-1.524-2.546-1.612-1.109-.083-2.668.44-4.676 1.57l3.576 6.156c1.354-.811 2.356-1.572 3.004-2.281.654-.7 1.012-1.359 1.074-1.975.076-.611-.068-1.231-.432-1.858Zm10.979 19.068.981 2.296-18.152 1.702-1.264-2.957 13.776-11.943 1.012 2.369-11.962 10.158 15.609-1.625Zm4.456 12.532c.367 1.293.481 2.402.344 3.328-.134.936-.567 1.735-1.3 2.397-.722.659-1.801 1.192-3.238 1.599l-11.161 3.161-.554-1.955 1.784-.688-.044-.154a4.725 4.725 0 0 1-2.082-1.306c-.547-.599-.944-1.335-1.191-2.207-.253-.893-.296-1.729-.128-2.508a4.006 4.006 0 0 1 1.106-2.026c.582-.564 1.346-.98 2.29-1.247 1.499-.425 2.785-.307 3.859.354 1.084.657 1.979 1.9 2.686 3.729l1.199 3.002 1.694-.479c.944-.268 1.644-.615 2.099-1.044.468-.421.735-.928.799-1.523.075-.598-.012-1.333-.259-2.205a12.208 12.208 0 0 0-.71-1.861 11.39 11.39 0 0 0-1.055-1.846l2.001-.567c.374.537.727 1.174 1.058 1.912.344.745.612 1.456.803 2.134Zm-15.365 4.285c.18.637.513 1.207 1 1.713.49.515 1.164.9 2.024 1.156l4.264-1.208-1.121-2.842c-.43-1.087-.978-1.829-1.645-2.228-.664-.388-1.464-.45-2.398-.186-.975.276-1.636.719-1.985 1.328-.346.619-.392 1.374-.139 2.267Zm18.257 8.44.306 2.025-1.885.479.024.159a5.988 5.988 0 0 1 1.92 1.78c.496.713.813 1.528.952 2.445.216 1.424-.041 2.612-.771 3.564-.72.95-2.044 1.571-3.974 1.864l-11.992 1.814-.364-2.404 11.85-1.794c1.212-.183 2.04-.562 2.482-1.136.452-.575.609-1.322.47-2.239-.107-.707-.4-1.391-.877-2.052-.476-.651-1.133-1.14-1.97-1.466l-12.972 1.963-.364-2.405 17.165-2.597Zm-15.175 25.145c-.083-4.287 2.862-6.488 8.834-6.604 3.125-.06 5.412.445 6.863 1.516 1.45 1.082 2.195 2.662 2.236 4.742.039 2.048-.65 3.64-2.069 4.777-1.418 1.147-3.673 1.751-6.766 1.811-3.114.06-5.402-.451-6.863-1.532-1.45-1.071-2.195-2.641-2.235-4.71Zm1.983-.038c.017.853.239 1.558.665 2.115.427.558 1.15.981 2.169 1.271 1.019.289 2.409.417 4.169.383 1.791-.034 3.201-.216 4.23-.545 1.028-.33 1.745-.786 2.15-1.37.405-.573.599-1.281.583-2.124-.017-.853-.238-1.563-.665-2.131-.417-.558-1.14-.981-2.169-1.271-1.019-.289-2.409-.417-4.168-.383-1.792.034-3.202.216-4.231.545-1.028.33-1.745.781-2.15 1.354-.405.584-.599 1.303-.583 2.156Z"/>
</svg>
