<svg xmlns="http://www.w3.org/2000/svg" width="390" height="401" fill="none" viewBox="0 0 390 401">
  <path fill="#000" d="m70.994 241.449-6.25 5.019 3.19 8.013 7.984-.664.905 2.274-24.728 1.905-1.296-3.255L70.07 239.13l.923 2.319Zm-5.33 13.212-2.7-6.778-9.74 7.804 12.44-1.026Zm3.738-18.919-24.9 6.968-.655-2.342 24.9-6.968.655 2.342Zm-11.725-17.108 1.705 9.334c1.495-.306 2.645-.716 3.45-1.232.806-.516 1.334-1.16 1.583-1.932.239-.77.256-1.716.05-2.839-.183-1.007-.614-2.181-1.293-3.521l2.046-.374c.35.663.627 1.295.835 1.897.207.602.37 1.228.49 1.879.296 1.626.251 3.012-.136 4.156-.398 1.146-1.2 2.1-2.405 2.862-1.207.752-2.881 1.324-5.022 1.715-3.011.55-5.323.419-6.935-.393-1.623-.809-2.608-2.169-2.957-4.079-.34-1.857.105-3.402 1.333-4.635 1.228-1.232 3.379-2.129 6.453-2.691l.803-.147Zm-6.792 7.161c.205 1.123.822 1.916 1.85 2.379 1.015.454 2.659.49 4.931.107l-1.28-7.004c-1.548.305-2.748.681-3.599 1.129-.852.438-1.412.936-1.679 1.494-.279.55-.353 1.182-.223 1.895Zm20.679-10.921c-1.55-.817-3.005-1.358-4.367-1.624-1.363-.277-2.984-.333-4.865-.168l-14.584 1.28-.213-2.422 14.409-1.265c1.424-.125 2.71-.12 3.856.015a13.53 13.53 0 0 1 3.313.785c1.073.388 2.208.936 3.405 1.645l-.954 1.754Zm-27.668-1.394c.047.542-.059.979-.319 1.313-.26.322-.64.506-1.14.55-.5.043-.905-.071-1.218-.343-.325-.282-.511-.694-.559-1.236-.047-.542.065-.975.336-1.298.261-.323.641-.506 1.14-.55.5-.044.906.07 1.22.343.312.272.492.679.54 1.221Zm2.926-12.868c.004-1.344.2-2.442.585-3.294.387-.863 1.023-1.512 1.91-1.947.876-.435 2.06-.65 3.554-.646l11.6.032-.006 2.032-1.904.171v.16a4.734 4.734 0 0 1 1.642 1.828c.36.727.54 1.543.537 2.45-.002.928-.191 1.743-.567 2.446a4.01 4.01 0 0 1-1.62 1.644c-.716.382-1.564.572-2.546.569-1.557-.005-2.761-.472-3.612-1.402-.861-.931-1.38-2.372-1.556-4.325l-.327-3.217-1.76-.004c-.981-.003-1.75.139-2.305.425-.566.276-.962.691-1.188 1.245-.236.554-.355 1.284-.358 2.191-.001.608.055 1.269.17 1.984.105.705.274 1.393.507 2.066l-2.08-.006a11.808 11.808 0 0 1-.49-2.129 14.622 14.622 0 0 1-.186-2.273Zm15.952.108a4.024 4.024 0 0 0-.49-1.921c-.33-.63-.872-1.186-1.628-1.668l-4.432-.013.296 3.041c.114 1.163.437 2.028.968 2.595.532.556 1.283.835 2.254.838 1.013.003 1.771-.24 2.274-.73.503-.5.756-1.214.758-2.142ZM47.62 187.077l.27-2.03 1.944.065.021-.158a5.99 5.99 0 0 1-1.347-2.246 5.707 5.707 0 0 1-.233-2.613c.19-1.428.768-2.497 1.734-3.208.956-.712 2.4-.939 4.336-.682l12.022 1.6-.321 2.411-11.88-1.581c-1.215-.162-2.115-.029-2.7.399-.595.427-.953 1.1-1.075 2.02-.095.708-.005 1.447.27 2.215.276.758.77 1.41 1.483 1.957l13.005 1.731-.321 2.41-17.208-2.29Zm21.443-19.291c-.288 1.071-.816 1.962-1.582 2.673-.773.697-1.846 1.132-3.218 1.303-1.382.169-3.072-.015-5.07-.554-3.038-.818-5.118-2.058-6.24-3.719-1.128-1.673-1.351-3.777-.669-6.311.147-.546.347-1.144.6-1.794l-8.065-2.172.633-2.348 24.966 6.725-.546 2.024-1.745-.288-.041.154a4.53 4.53 0 0 1 1.036 1.937c.185.746.166 1.536-.059 2.37Zm-1.916-1.129a3.751 3.751 0 0 0-.003-1.957 3.601 3.601 0 0 0-1.036-1.753l-11.216-3.022c-.12.244-.248.552-.382.925a9.84 9.84 0 0 0-.336 1.003c-.452 1.679-.267 3.082.556 4.209.826 1.118 2.454 2.004 4.885 2.659 1.7.457 3.07.656 4.115.594 1.036-.074 1.815-.339 2.335-.796.51-.459.871-1.08 1.082-1.862Zm-10.982-16.638.737-1.894 2.282.665.058-.149c-.607-.763-.972-1.575-1.095-2.435a5.086 5.086 0 0 1 .314-2.573c.09-.229.232-.522.429-.881l2.162.842c-.133.223-.288.563-.466 1.02-.306.786-.391 1.622-.256 2.51.14.879.5 1.655 1.086 2.329l11.809 4.596-.882 2.266-16.178-6.296Zm23.222-8.805c-1.975 3.806-5.614 4.333-10.916 1.582-2.774-1.439-4.542-2.976-5.305-4.609-.758-1.643-.658-3.388.3-5.234.943-1.818 2.31-2.888 4.099-3.209 1.794-.331 4.064.216 6.81 1.64 2.764 1.435 4.53 2.976 5.297 4.624.763 1.634.668 3.369-.285 5.206Zm-1.761-.914c.393-.758.535-1.483.426-2.177-.11-.693-.542-1.41-1.3-2.152-.756-.741-1.916-1.517-3.478-2.327-1.59-.826-2.916-1.339-3.977-1.541-1.061-.202-1.909-.143-2.543.176-.63.311-1.139.84-1.527 1.588-.393.757-.537 1.487-.433 2.19.099.689.532 1.406 1.298 2.152.757.741 1.917 1.517 3.48 2.328 1.59.825 2.916 1.339 3.977 1.541 1.06.202 1.906.148 2.535-.163.635-.319 1.148-.858 1.542-1.615Zm17.488-22.476c-1.26 1.561-2.625 2.632-4.095 3.213-1.472.567-3.135.581-4.99.044-1.849-.546-3.914-1.741-6.197-3.583-3.336-2.693-5.243-5.274-5.718-7.741-.47-2.476.284-4.938 2.26-7.387a15.054 15.054 0 0 1 3.157-2.942l1.706 1.377c-.617.407-1.177.846-1.68 1.317-.497.462-.98.984-1.449 1.565-.998 1.237-1.581 2.452-1.75 3.646-.162 1.185.159 2.444.96 3.777.803 1.333 2.167 2.776 4.092 4.331 1.968 1.588 3.687 2.633 5.16 3.136 1.471.503 2.762.551 3.872.144 1.101-.413 2.14-1.226 3.119-2.438.435-.539.818-1.115 1.147-1.726.32-.619.628-1.33.921-2.135l1.706 1.376a12.042 12.042 0 0 1-.898 2.03c-.373.7-.814 1.365-1.323 1.996ZM82.585 92.698l1.766-1.672 7.172 7.575.105-.099c-.096-.923.007-1.776.307-2.56.301-.8.789-1.518 1.462-2.156 1.015-.96 2.121-1.406 3.32-1.336 1.19.063 2.463.81 3.82 2.244l8.294 8.76-1.766 1.672-8.217-8.679c-.858-.906-1.645-1.373-2.361-1.4-.724-.035-1.422.267-2.096.905-.511.484-.91 1.11-1.195 1.88-.277.762-.307 1.576-.089 2.442l9.021 9.527-1.766 1.672-17.777-18.775Zm23.662-9.512c1.086-.792 2.087-1.284 3.003-1.476.925-.198 1.824-.069 2.699.39.869.448 1.743 1.276 2.622 2.483l6.833 9.374-1.642 1.197-1.264-1.435-.129.094a4.737 4.737 0 0 1-.503 2.407c-.373.72-.925 1.347-1.658 1.881-.75.547-1.519.877-2.308.99a4.01 4.01 0 0 1-2.284-.336c-.731-.351-1.386-.923-1.964-1.716-.917-1.259-1.252-2.506-1.005-3.742.241-1.245 1.097-2.516 2.568-3.812l2.401-2.166-1.037-1.422c-.578-.793-1.147-1.329-1.706-1.608-.557-.293-1.126-.367-1.706-.221-.587.137-1.246.472-1.979 1.006a12.38 12.38 0 0 0-1.5 1.311 11.445 11.445 0 0 0-1.366 1.63l-1.225-1.681c.374-.537.85-1.088 1.427-1.654.58-.581 1.154-1.08 1.723-1.494Zm9.345 12.929c.534-.39.954-.9 1.259-1.532.314-.638.442-1.404.384-2.299l-2.611-3.581-2.278 2.036c-.87.78-1.377 1.551-1.519 2.315-.134.758.084 1.53.656 2.314.597.818 1.241 1.286 1.933 1.402.701.11 1.426-.108 2.176-.655Zm10.618-25.028 2.183-1.21 3.546 17.883-2.813 1.559-13.286-12.484 2.253-1.249L129.42 86.45l-3.21-15.362Zm21.349 1.109-8.802 3.541c.599 1.403 1.232 2.448 1.899 3.134.667.686 1.404 1.074 2.21 1.163.802.08 1.733-.094 2.792-.52.95-.382 2.013-1.04 3.19-1.973l.776 1.93a13.7 13.7 0 0 1-1.691 1.198 12.86 12.86 0 0 1-1.742.856c-1.534.617-2.9.85-4.099.7-1.203-.16-2.298-.754-3.287-1.782-.978-1.032-1.874-2.557-2.686-4.576-1.143-2.84-1.478-5.131-1.006-6.873.468-1.752 1.602-2.99 3.403-3.715 1.752-.704 3.355-.579 4.808.377 1.454.956 2.764 2.883 3.931 5.783l.304.757Zm-8.377-5.219c-1.059.426-1.712 1.19-1.959 2.29-.241 1.085.053 2.703.883 4.852l6.606-2.657c-.609-1.457-1.219-2.557-1.828-3.3-.6-.748-1.2-1.197-1.8-1.346-.595-.163-1.229-.11-1.902.161Zm16.515 8.83 7.835-2.161.536 1.943-10.534 2.906-.396-1.434 3.981-15.472-7.511 2.072-.536-1.943 10.226-2.821.395 1.434-3.996 15.476Zm176.191 134.356-11.311-.203c-.248-1.594-.361-3.052-.337-4.375.043-2.421.479-4.419 1.307-5.993.829-1.575 2.13-2.752 3.904-3.531 1.785-.779 4.123-1.142 7.013-1.09 4.287.077 7.37 1.001 9.248 2.774 1.877 1.783 2.786 4.355 2.726 7.714a16.473 16.473 0 0 1-.706 4.532l-2.191-.039c.452-1.422.692-2.89.719-4.404.031-1.749-.252-3.2-.85-4.352-.598-1.141-1.628-2.024-3.089-2.648-1.451-.612-3.429-.941-5.935-.986-2.453-.044-4.405.214-5.855.775-1.44.571-2.48 1.433-3.119 2.584-.629 1.163-.96 2.671-.993 4.527-.014.768.021 1.505.104 2.21l9.406.169-.041 2.336Zm4.558 12.504c-.213 1.327-.576 2.382-1.091 3.164-.516.792-1.246 1.334-2.189 1.625-.933.293-2.137.322-3.611.085l-11.454-1.839.322-2.006 1.908.128.026-.158a4.726 4.726 0 0 1-1.338-2.062c-.244-.774-.293-1.608-.15-2.503.147-.917.461-1.693.941-2.329a4.004 4.004 0 0 1 1.857-1.371c.767-.266 1.634-.321 2.603-.165 1.538.247 2.654.896 3.35 1.947.706 1.053.994 2.558.863 4.514l-.178 3.229 1.738.279c.969.155 1.75.135 2.344-.062.602-.184 1.057-.532 1.366-1.044.32-.511.552-1.214.695-2.109.097-.6.144-1.262.141-1.987a11.49 11.49 0 0 0-.178-2.119l2.053.33c.113.645.164 1.371.153 2.18-.002.82-.059 1.578-.171 2.273Zm-15.74-2.591a4.024 4.024 0 0 0 .185 1.974c.227.674.676 1.308 1.348 1.902l4.376.702.182-3.049c.068-1.167-.116-2.071-.553-2.714-.439-.632-1.137-1.025-2.096-1.179-1-.161-1.787-.039-2.36.366-.574.416-.935 1.082-1.082 1.998Zm-5.445 15.611c.211-.705.492-1.423.843-2.153.349-.72.711-1.335 1.086-1.846l24.392 7.283-.696 2.33-9.735-2.907-.041.138c.428.54.72 1.184.876 1.931.152.758.106 1.546-.138 2.364-.482 1.615-1.529 2.733-3.139 3.354-1.603.634-3.861.517-6.774-.353-5.939-1.773-8.163-5.153-6.674-10.141Zm1.895.699c-.491 1.646-.339 3.038.456 4.177.806 1.143 2.41 2.072 4.811 2.789 1.677.501 3.039.73 4.087.686 1.045-.033 1.829-.272 2.352-.717.532-.442.916-1.057 1.151-1.844a3.84 3.84 0 0 0 .065-1.95 3.5 3.5 0 0 0-.936-1.733l-11.115-3.318a5.955 5.955 0 0 0-.478.875 8.348 8.348 0 0 0-.393 1.035Zm10.777 17.049-.781 1.876-2.266-.718-.061.148c.589.777.935 1.597 1.038 2.46a5.077 5.077 0 0 1-.374 2.565 7.844 7.844 0 0 1-.448.87l-2.142-.891c.137-.22.3-.556.489-1.009.324-.778.428-1.613.314-2.504a4.586 4.586 0 0 0-1.032-2.353l-11.7-4.867.935-2.246 16.028 6.669Zm-20.616 3.722 15.5 7.818-1.096 2.172-15.5-7.818 1.096-2.172Zm18.309 10.597c.245-.486.566-.802.962-.948.392-.137.812-.093 1.259.133.448.226.733.537.856.933.127.411.068.859-.177 1.345s-.568.795-.969.927c-.392.137-.811.092-1.259-.133-.448-.226-.733-.537-.855-.934-.123-.396-.062-.837.183-1.323Zm-21.126 9.932 5.028-8.046c-1.31-.781-2.437-1.252-3.38-1.414-.943-.162-1.767-.041-2.471.361-.695.409-1.345 1.097-1.95 2.064-.543.869-1.015 2.027-1.417 3.474l-1.763-1.103a13.63 13.63 0 0 1 .661-1.964 12.91 12.91 0 0 1 .904-1.718c.876-1.402 1.843-2.395 2.9-2.98 1.066-.578 2.302-.744 3.706-.495 1.399.258 3.02.964 4.866 2.117 2.596 1.622 4.216 3.276 4.86 4.962.654 1.692.466 3.361-.563 5.007-1 1.601-2.369 2.443-4.107 2.527-1.738.084-3.932-.703-6.582-2.359l-.692-.433Zm9.843-.715c.605-.968.684-1.97.236-3.004-.444-1.02-1.635-2.154-3.572-3.402l-3.773 6.038c1.35.818 2.49 1.348 3.42 1.59.925.251 1.674.26 2.248.027.576-.218 1.057-.634 1.441-1.249Zm-18.996-.173 20.598 15.63-1.471 1.937-20.597-15.63 1.47-1.937Zm4.965 21.682c-.909.991-1.793 1.67-2.653 2.039-.867.377-1.774.428-2.722.151-.941-.269-1.961-.908-3.061-1.918l-8.547-7.842 1.373-1.497 1.522 1.157.108-.118a4.749 4.749 0 0 1 .019-2.458c.224-.779.642-1.503 1.255-2.171.627-.684 1.316-1.159 2.067-1.426a4.012 4.012 0 0 1 2.305-.121c.786.2 1.541.632 2.264 1.295 1.148 1.053 1.722 2.21 1.723 3.471.01 1.268-.579 2.682-1.765 4.243l-1.927 2.597 1.297 1.19c.723.663 1.386 1.076 1.99 1.239.604.178 1.176.138 1.716-.119.548-.25 1.128-.709 1.741-1.377.411-.448.815-.975 1.212-1.581.397-.591.737-1.213 1.018-1.867l1.533 1.406c-.261.6-.619 1.235-1.073 1.903a14.574 14.574 0 0 1-1.395 1.804Zm-11.711-10.832a4.023 4.023 0 0 0-.932 1.75c-.182.688-.156 1.464.077 2.33l3.266 2.996 1.831-2.445c.7-.936 1.044-1.793 1.033-2.57-.018-.769-.384-1.482-1.099-2.138-.747-.685-1.471-1.017-2.172-.994-.708.03-1.376.388-2.004 1.071Zm-15.195 12.237 14.157 18.983-1.976 1.473-12.817-17.187-8.042 5.998-1.339-1.796 10.017-7.471Zm-16.939 11.184c1.236-.697 2.428-.874 3.577-.53s2.211 1.38 3.186 3.109l5.94 10.536-2.118 1.195-5.894-10.453c-.607-1.078-1.256-1.729-1.945-1.952-.694-.209-1.431-.094-2.211.346-.595.336-1.112.841-1.551 1.517-.448.682-.67 1.462-.664 2.34l6.467 11.471-2.118 1.194-8.527-15.122 1.784-1.005 1.095 1.55.139-.079c.164-.925.489-1.739.975-2.441a5.656 5.656 0 0 1 1.865-1.676Zm-18.325 17.559 8.79-3.574c-.605-1.401-1.241-2.443-1.911-3.126-.669-.684-1.407-1.069-2.214-1.156-.802-.076-1.732.1-2.79.53-.948.386-2.009 1.047-3.183 1.985l-.783-1.927c.578-.476 1.14-.878 1.687-1.204a12.791 12.791 0 0 1 1.739-.862c1.532-.623 2.897-.861 4.096-.716 1.203.156 2.301.746 3.293 1.77.983 1.029 1.884 2.551 2.703 4.567 1.153 2.836 1.497 5.125 1.031 6.869-.461 1.754-1.591 2.996-3.39 3.727-1.749.711-3.352.592-4.809-.359-1.457-.95-2.774-2.873-3.951-5.768l-.308-.756Zm8.396 5.188c1.058-.43 1.708-1.196 1.951-2.296.238-1.087-.062-2.704-.901-4.85l-6.595 2.682c.614 1.454 1.227 2.552 1.84 3.293.602.745 1.204 1.192 1.805 1.339.595.161 1.228.105 1.9-.168Zm-20.937 8.364-2.411.646.885-18.21 3.107-.832 9.871 15.327-2.488.667-8.362-13.28-.602 15.682Zm-12.756 2.6c-1.332.183-2.446.142-3.344-.123-.908-.263-1.639-.804-2.192-1.622-.552-.807-.929-1.95-1.132-3.43l-1.574-11.493 2.013-.275.433 1.862.159-.021a4.739 4.739 0 0 1 1.583-1.881c.67-.457 1.453-.748 2.352-.871.919-.126 1.753-.051 2.501.223a4.002 4.002 0 0 1 1.852 1.377c.477.656.783 1.47.916 2.443.211 1.543-.085 2.8-.889 3.771-.802.982-2.158 1.695-4.067 2.14l-3.141.769.239 1.744c.133.972.38 1.713.741 2.224.351.522.817.857 1.397 1.004.581.157 1.321.174 2.219.051a12.26 12.26 0 0 0 1.942-.444 11.414 11.414 0 0 0 1.976-.787l.282 2.061c-.584.295-1.265.555-2.041.78-.786.237-1.528.403-2.225.498Zm-2.101-15.813a4.033 4.033 0 0 0-1.835.752c-.579.413-1.054 1.027-1.427 1.843l.601 4.391 2.971-.714c1.136-.274 1.948-.713 2.435-1.318.478-.604.65-1.387.519-2.348-.138-1.004-.484-1.721-1.038-2.152-.565-.428-1.307-.58-2.226-.454Zm-11.136 16.917-2.048.017-.208-1.934-.16.001a5.99 5.99 0 0 1-2.034 1.65 5.706 5.706 0 0 1-2.555.598c-1.44.012-2.58-.41-3.419-1.267-.84-.846-1.268-2.245-1.284-4.197l-.104-12.128 2.432-.021.102 11.984c.011 1.227.269 2.099.775 2.618.506.529 1.223.789 2.151.781.714-.006 1.433-.199 2.155-.578.711-.38 1.288-.961 1.729-1.743l-.112-13.12 2.432-.021.148 17.36Zm-22.823-18.591c4.255.533 6.011 3.764 5.268 9.691-.388 3.101-1.217 5.292-2.485 6.574-1.278 1.28-2.949 1.791-5.013 1.532-2.032-.254-3.509-1.165-4.431-2.732-.932-1.568-1.206-3.887-.821-6.956.387-3.09 1.22-5.281 2.5-6.572 1.268-1.282 2.929-1.794 4.982-1.537Zm-.247 1.969c-.847-.106-1.576.012-2.189.355-.613.342-1.135.997-1.568 1.964-.433.967-.759 2.324-.978 4.07-.223 1.778-.245 3.2-.067 4.265.179 1.065.528 1.84 1.048 2.324.509.483 1.182.777 2.018.882.846.106 1.581-.012 2.205-.353.611-.332 1.134-.987 1.568-1.964.433-.967.759-2.324.978-4.07.222-1.778.245-3.2.066-4.265-.178-1.065-.522-1.839-1.031-2.322-.52-.485-1.203-.78-2.05-.886Z"/>
</svg>
